<?xml version="1.0" encoding="UTF-8"?>
<!DOCTYPE svg PUBLIC "-//W3C//DTD SVG 1.1//EN" "http://www.w3.org/Graphics/SVG/1.1/DTD/svg11.dtd">
<!-- Creator: CorelDRAW 2019 (64-Bit) -->
<svg xmlns="http://www.w3.org/2000/svg" xml:space="preserve" width="50px" height="34px" version="1.1" style="shape-rendering:geometricPrecision; text-rendering:geometricPrecision; image-rendering:optimizeQuality; fill-rule:evenodd; clip-rule:evenodd"
viewBox="0 0 8.82 5.98"
 xmlns:xlink="http://www.w3.org/1999/xlink">
 <defs>
  <style type="text/css">
   <![CDATA[
    .fil0 {fill:#ED3237}
    .fil3 {fill:#CF4449}
    .fil4 {fill:#AA3436}
    .fil2 {fill:red}
    .fil1 {fill:#FF6464}
   ]]>
  </style>
 </defs>
 <g id="Layer_x0020_1">
  <metadata id="CorelCorpID_0Corel-Layer"/>
  <g id="_2641302848656">
   <path class="fil0" d="M6.02 2.61l-2.06 -1.96 -3.25 3.44c0.37,0.35 1.17,1.2 1.57,1.47 0.4,0.28 0.82,0.15 1.08,-0.13l2.66 -2.82z"/>
   <path class="fil1" d="M4.69 1.35l1.33 1.26 -1.93 2.04 0.77 0.69c1.1,-1.14 2.17,-2.29 3.25,-3.44l-1.58 -1.48c-0.25,-0.17 -0.59,-0.2 -0.87,-0.03l-0.97 0.96z"/>
   <polygon class="fil2" points="1.3,2.01 1.7,2.69 1.98,2.4 1.57,1.71 "/>
   <polygon class="fil2" points="0.81,2.51 1.2,3.21 1.5,2.91 1.1,2.23 "/>
   <polygon class="fil2" points="1.78,1.51 2.16,2.16 2.19,2.18 2.47,1.88 2.27,1.54 2.06,1.21 "/>
   <polygon class="fil1" points="5.38,5.13 5.78,5.81 6.07,5.51 5.67,4.83 "/>
   <polygon class="fil2" points="2.26,0.99 2.67,1.67 2.82,1.52 2.95,1.38 2.55,0.69 "/>
   <polygon class="fil2" points="0.33,3.03 0.74,3.72 1.02,3.43 0.61,2.74 "/>
   <polygon class="fil1" points="6.35,4.1 6.64,4.61 6.76,4.78 7.04,4.5 6.63,3.81 "/>
   <polygon class="fil1" points="7.8,2.56 8.21,3.25 8.49,2.95 8.08,2.27 "/>
   <polygon class="fil2" points="2.75,0.48 3.15,1.16 3.43,0.88 3.04,0.18 "/>
   <polygon class="fil1" points="6.83,3.6 7.25,4.28 7.52,3.98 7.12,3.3 "/>
   <polygon class="fil1" points="5.86,4.62 6.26,5.3 6.55,5 6.16,4.32 "/>
   <polygon class="fil1" points="7.32,3.08 7.71,3.76 8,3.46 7.6,2.78 "/>
   <polygon class="fil2" points="0.16,3.19 0,3.36 0.56,3.87 "/>
   <polygon class="fil2" points="3.66,0.68 3.82,0.52 3.26,0 "/>
   <polygon class="fil1" points="5.23,5.3 5.07,5.46 5.63,5.98 "/>
   <polygon class="fil1" points="8.66,2.82 8.82,2.66 8.26,2.14 "/>
   <polygon class="fil3" points="6.02,2.61 4.1,4.65 4.36,4.88 6.54,2.57 4.96,1.08 4.69,1.35 "/>
   <polygon class="fil2" points="1.3,2.01 1.7,2.69 1.98,2.4 1.57,1.71 "/>
   <polygon class="fil2" points="0.81,2.51 1.2,3.21 1.5,2.91 1.1,2.23 "/>
   <polygon class="fil2" points="1.78,1.51 2.16,2.16 2.19,2.18 2.47,1.88 2.27,1.54 2.06,1.21 "/>
   <polygon class="fil1" points="5.38,5.13 5.78,5.81 6.07,5.51 5.67,4.83 "/>
   <polygon class="fil2" points="2.26,0.99 2.67,1.67 2.82,1.52 2.95,1.38 2.55,0.69 "/>
   <polygon class="fil2" points="0.33,3.03 0.74,3.72 1.02,3.43 0.61,2.74 "/>
   <polygon class="fil1" points="6.35,4.1 6.64,4.61 6.76,4.78 7.04,4.5 6.63,3.81 "/>
   <polygon class="fil1" points="7.8,2.56 8.21,3.25 8.49,2.95 8.08,2.27 "/>
   <polygon class="fil2" points="2.75,0.48 3.15,1.16 3.43,0.88 3.04,0.18 "/>
   <polygon class="fil1" points="6.83,3.6 7.25,4.28 7.52,3.98 7.12,3.3 "/>
   <polygon class="fil1" points="5.86,4.62 6.26,5.3 6.55,5 6.16,4.32 "/>
   <polygon class="fil1" points="7.32,3.08 7.71,3.76 8,3.46 7.6,2.78 "/>
   <polygon class="fil2" points="0.16,3.19 0,3.36 0.56,3.87 "/>
   <polygon class="fil2" points="3.66,0.68 3.82,0.52 3.26,0 "/>
   <polygon class="fil1" points="5.23,5.3 5.07,5.46 5.63,5.98 "/>
   <polygon class="fil1" points="8.66,2.82 8.82,2.66 8.26,2.14 "/>
   <polygon class="fil4" points="6.02,2.61 4.1,4.65 4.36,4.88 6.54,2.57 4.96,1.08 4.69,1.35 "/>
  </g>
 </g>
</svg>
