<?xml version="1.0" encoding="UTF-8"?>
<!DOCTYPE svg PUBLIC "-//W3C//DTD SVG 1.1//EN" "http://www.w3.org/Graphics/SVG/1.1/DTD/svg11.dtd">
<!-- Creator: CorelDRAW 2019 (64-Bit) -->
<svg xmlns="http://www.w3.org/2000/svg" xml:space="preserve" width="35px" height="32px" version="1.1" style="shape-rendering:geometricPrecision; text-rendering:geometricPrecision; image-rendering:optimizeQuality; fill-rule:evenodd; clip-rule:evenodd"
viewBox="0 0 0.1 0.09"
 xmlns:xlink="http://www.w3.org/1999/xlink">
 <defs>
  <style type="text/css">
   <![CDATA[
    .fil8 {fill:#096FBA;fill-rule:nonzero}
    .fil5 {fill:#161616;fill-rule:nonzero}
    .fil0 {fill:#282925;fill-rule:nonzero}
    .fil3 {fill:#333333;fill-rule:nonzero}
    .fil1 {fill:#3A3B35;fill-rule:nonzero}
    .fil11 {fill:#595959;fill-rule:nonzero}
    .fil6 {fill:#686868;fill-rule:nonzero}
    .fil9 {fill:#D32F2E;fill-rule:nonzero}
    .fil10 {fill:#DA4E4D;fill-rule:nonzero}
    .fil7 {fill:#E4E4E4;fill-rule:nonzero}
    .fil4 {fill:#EEEEEE;fill-rule:nonzero}
    .fil2 {fill:#FEFEFE;fill-rule:nonzero}
    .fil12 {fill:white;fill-rule:nonzero}
   ]]>
  </style>
 </defs>
 <g id="Layer_x0020_1">
  <metadata id="CorelCorpID_0Corel-Layer"/>
  <g id="_2193485599824">
   <path class="fil0" d="M0.09 0.01l0.01 0c0,0 0,0 0,0l0 -0.01c0,0 0,0 0,0 0,0 0,0 0,0 0,0 0,0 0,0 0,0 0,0 0,0l-0.02 0 0 0.01 0.01 0 0 0 0 0z"/>
   <path class="fil0" d="M0.1 0.03c0,0 0,0 0,0l-0.09 0c0,0 -0.01,0 -0.01,0l0 -0.01c0,0 0.01,0 0.01,0l0.09 0c0,0 0,0 0,0l0 0.01z"/>
   <path class="fil0" d="M0.01 0.09l0.09 0c0,0 0,0 0,0l0 -0.06 -0.09 0 0 0.06c0,0 0,0 0,0z"/>
   <path class="fil1" d="M0 0.09l0.09 0c0,0 0.01,0 0.01,0l0 -0.06 -0.1 0 0 0.06c0,0 0,0 0,0z"/>
   <polygon class="fil2" points="0,0.04 0.1,0.04 0.1,0.04 0,0.04 "/>
   <polygon class="fil2" points="0,0.07 0.1,0.07 0.1,0.06 0,0.06 "/>
   <polygon class="fil2" points="0,0.08 0.1,0.08 0.1,0.08 0,0.08 "/>
   <polygon class="fil2" points="0.05,0.06 0.05,0.06 0.05,0.04 0.05,0.04 "/>
   <path class="fil2" d="M0.01 0.05c0,0 0,0 0,0 0.01,0 0.01,0 0.01,0 0,0 0,0 -0.01,0 0,0 0,0 0,0 0,0 0,0 0.01,0 0,0 0,0 0,0l0 0c0,0 0,0 0,0 -0.01,0 -0.01,0 -0.01,0 0,0 0,0 0.01,0 0,0 0,0 0,0 0,0 0,0 -0.01,0 0,0 0,0 0,0l0 0z"/>
   <path class="fil2" d="M0.02 0.05c0,0 0,0 0,0 0,0 0,0 0,0 0,0 0,0 0,0 0,0 0,0 0,0l0 0c0,0 0,0 0,0 0,0 0,0 0,0 0,0 0,0 0,0 0,0 0,0 0,0l0 0z"/>
   <polygon class="fil2" points="0.02,0.05 0.02,0.05 0.02,0.05 0.02,0.05 0.02,0.05 0.02,0.05 0.02,0.05 0.02,0.05 0.02,0.05 0.02,0.05 0.02,0.05 0.02,0.05 "/>
   <path class="fil2" d="M0.03 0.05l0 0 0 0 0 0c0,0 0,0 0,0l0 0c0,0 0,0 0,0l0 0 0 0 0 0 0 0 0 0c0,0 0,0 0,0l0 0c0,0 0,0 0,0l0 0 0 0z"/>
   <polygon class="fil2" points="0.03,0.05 0.03,0.05 0.03,0.05 0.03,0.05 0.03,0.05 0.03,0.05 0.03,0.05 0.03,0.05 0.03,0.05 0.03,0.05 0.03,0.05 0.03,0.05 "/>
   <polygon class="fil2" points="0.06,0.05 0.06,0.05 0.06,0.05 0.07,0.05 0.07,0.05 0.06,0.05 0.06,0.05 0.06,0.05 "/>
   <path class="fil2" d="M0.07 0.05l0 0c0,0 0,0 0,0l0 0c0,0 0,0 0,0l0 0 0 0zm0 0l0 0 0 0 0 0 0 0 0 0 0 0 0 0 0 0z"/>
   <path class="fil2" d="M0.07 0.05l0 0 0 0 0 0c0,0 0,0 0,0l0 0 0 0 0 0 0 0 0 0 0 0 0 0 0 0 0 0 0 0z"/>
   <polygon class="fil2" points="0.08,0.05 0.08,0.05 0.08,0.05 0.08,0.05 0.08,0.05 0.08,0.05 0.08,0.05 0.08,0.05 0.08,0.05 0.08,0.05 0.08,0.05 0.08,0.05 "/>
   <polygon class="fil0" points="0,0.03 0.1,0.03 0.1,0.03 0,0.03 "/>
   <path class="fil3" d="M0.1 0.03c0,0 0,0 -0.01,0l-0.09 0c0,0 0,0 0,0l0 -0.01c0,0 0,0 0,0l0.09 0c0.01,0 0.01,0 0.01,0l0 0.01z"/>
   <polygon class="fil4" points="0.01,0.02 0,0.03 0.01,0.03 0.01,0.02 "/>
   <polygon class="fil4" points="0.02,0.02 0.02,0.03 0.02,0.03 0.03,0.02 "/>
   <polygon class="fil4" points="0.03,0.02 0.03,0.03 0.04,0.03 0.04,0.02 "/>
   <polygon class="fil4" points="0.05,0.02 0.05,0.03 0.05,0.03 0.05,0.02 "/>
   <polygon class="fil4" points="0.06,0.02 0.06,0.03 0.07,0.03 0.07,0.02 "/>
   <polygon class="fil4" points="0.08,0.02 0.07,0.03 0.08,0.03 0.08,0.02 "/>
   <polygon class="fil4" points="0.09,0.02 0.08,0.03 0.09,0.03 0.09,0.02 "/>
   <path class="fil5" d="M0 0.02l0 0.01c0,0 0,0 0,0l0.02 0 0 -0.01 -0.02 0c0,0 0,0 0,0z"/>
   <path class="fil3" d="M0.09 0.01c0.01,0 0,0 0,0l-0.09 0.01c0,0 0,0 0,0l0 0c0,0 0,0 0,0l0.09 -0.02c0,0 0,0 0,0l0 0.01z"/>
   <polygon class="fil4" points="0.01,0.02 0,0.02 0.01,0.02 0.01,0.01 "/>
   <polygon class="fil4" points="0.02,0.01 0.02,0.02 0.02,0.02 0.03,0.01 "/>
   <polygon class="fil4" points="0.03,0.01 0.03,0.02 0.04,0.02 0.04,0.01 "/>
   <polygon class="fil4" points="0.05,0.01 0.04,0.02 0.05,0.02 0.05,0.01 "/>
   <polygon class="fil4" points="0.06,0.01 0.06,0.01 0.07,0.01 0.07,0 "/>
   <polygon class="fil4" points="0.07,0 0.07,0.01 0.08,0.01 0.08,0 "/>
   <polygon class="fil4" points="0.08,0 0.08,0.01 0.09,0.01 0.09,0 "/>
   <path class="fil5" d="M0 0.02l0 0c0,0 0,0 0,0l0.02 0 0 -0.01 -0.02 0.01c0,0 0,0 0,0z"/>
   <path class="fil3" d="M0.01 0.03l-0.01 0c0,0 0,0 0,0l0 -0.01c0,0 0,0 0,0l0.01 0c0,0 0,0 0,0l0 0.01c0,0 0,0 0,0z"/>
   <path class="fil6" d="M0.01 0.02c0,0 0,0 -0.01,0 0,0 0,0 0,0 0,0 0,0 0,0 0.01,0 0.01,0 0.01,0z"/>
   <path class="fil1" d="M0.01 0.02c0,0 0,0 -0.01,0 0,0 0,0 0,0 0,0 0,0 0,0 0.01,0 0.01,0 0.01,0z"/>
   <path class="fil6" d="M0.01 0.02c0,0 0,0 0,0 0,0 0,0 0,0 0,0 0,0 0,0 0,0 0,0 0,0z"/>
   <path class="fil1" d="M0.01 0.02c0,0 0,0 0,0 0,0 0,0 0,0 0,0 0,0 0,0 0,0 0,0 0,0z"/>
   <path class="fil6" d="M0.01 0.03c0,0 0,0 0,0 0,0 0,0 0,0 0,-0.01 0,-0.01 0,-0.01 0,0 0,0 0,0.01z"/>
   <path class="fil1" d="M0.01 0.03c0,0 0,0 0,0 0,0 0,0 0,0 0,0 0,-0.01 0,-0.01 0,0 0,0.01 0,0.01z"/>
   <path class="fil6" d="M0.01 0.03c0,0 0,0 -0.01,0 0,0 0,0 0,0 0,-0.01 0,-0.01 0,-0.01 0.01,0 0.01,0 0.01,0.01z"/>
   <path class="fil1" d="M0.01 0.03c0,0 0,0 -0.01,0 0,0 0,0 0,0 0,0 0,-0.01 0,-0.01 0.01,0 0.01,0.01 0.01,0.01z"/>
   <polygon class="fil7" points="0.06,0.05 0.06,0.05 0.06,0.05 0.06,0.05 0.06,0.05 0.07,0.05 0.07,0.05 0.06,0.05 "/>
   <polygon class="fil7" points="0.07,0.05 0.07,0.05 0.07,0.05 0.07,0.05 0.07,0.05 "/>
   <polygon class="fil8" points="0.07,0.03 0.07,0.03 "/>
   <polygon class="fil9" points="0.07,0.03 0.07,0.03 0.07,0.03 "/>
   <polygon class="fil10" points="0.07,0.03 0.07,0.03 0.07,0.03 "/>
   <polygon class="fil11" points="0.07,0.02 0.07,0.02 "/>
   <path class="fil11" d="M0.07 0.02c0,0 0,0 0,0 0,0 0,0 0,0z"/>
   <path class="fil11" d="M0.07 0.02c0,0 0,0 0,0 0,0 0,0 0,0z"/>
   <path class="fil11" d="M0.07 0.02c0,0 0,0 0,0 0,0 0,0 0,0z"/>
   <path class="fil12" d="M0.09 0.02c0,0 0,0 0,0 0,0 0,0 0,0zm-0.01 0c0,0 0,0 0,0 0,0 0,0 0,0zm0.01 0c0,0 0,0 0,0 0,0 0,0 0,0zm-0.01 0c0,0 0,0 0,0 0,0 0,0 0,0zm0.01 0c0,0 0,0 0,0 0,0 0,0 0,0zm-0.01 0c0,0 0,0 0,0 0,0 0,0 0,0zm0.01 0c0,0 0,0 0,0 0,0 0,0 0,0zm-0.01 0c0,0 0,0 0,0 0,0 0,0 0,0z"/>
  </g>
 </g>
</svg>
