<?xml version="1.0" encoding="UTF-8"?>
<!DOCTYPE svg PUBLIC "-//W3C//DTD SVG 1.1//EN" "http://www.w3.org/Graphics/SVG/1.1/DTD/svg11.dtd">
<!-- Creator: CorelDRAW 2019 (64-Bit) -->
<svg xmlns="http://www.w3.org/2000/svg" xml:space="preserve" width="2530px" height="1715px" version="1.1" style="shape-rendering:geometricPrecision; text-rendering:geometricPrecision; image-rendering:optimizeQuality; fill-rule:evenodd; clip-rule:evenodd"
viewBox="0 0 446.25 302.49"
 xmlns:xlink="http://www.w3.org/1999/xlink">
 <defs>
  <style type="text/css">
   <![CDATA[
    .fil0 {fill:#ED3237}
    .fil3 {fill:#CF4449}
    .fil4 {fill:#AA3436}
    .fil2 {fill:red}
    .fil1 {fill:#FF6464}
   ]]>
  </style>
 </defs>
 <g id="Layer_x0020_1">
  <metadata id="CorelCorpID_0Corel-Layer"/>
  <g id="_2641302848656">
   <path class="fil0" d="M304.73 131.95l-104.61 -98.92 -164.3 173.84c18.6,17.72 59.28,60.61 79.32,74.61 20.24,14.13 41.78,7.38 54.74,-6.83l134.85 -142.7z"/>
   <path class="fil1" d="M237.2 68.09l67.32 63.86 -97.38 103.18 39.02 34.91c55.33,-57.52 109.7,-115.69 164.25,-173.96l-79.83 -74.82c-12.58,-8.57 -29.83,-10.06 -44.16,-1.28l-49.22 48.11z"/>
   <polygon class="fil2" points="65.66,101.66 85.91,136.22 100.3,121.59 79.45,86.67 "/>
   <polygon class="fil2" points="41.08,126.93 60.92,162.51 76,147.09 55.82,112.68 "/>
   <polygon class="fil2" points="89.91,76.16 109.46,109.22 110.62,110.53 124.9,95.28 115.02,78.15 104.24,61 "/>
   <polygon class="fil1" points="272.38,259.48 292.65,294.14 307.09,278.61 286.91,244.38 "/>
   <polygon class="fil2" points="114.48,49.85 135.34,84.41 142.5,76.94 149.48,69.81 129.14,34.86 "/>
   <polygon class="fil2" points="16.68,153.47 37.27,188.27 51.62,173.63 30.9,138.84 "/>
   <polygon class="fil1" points="321.24,207.67 336.1,233.33 341.83,242.09 356.2,227.77 335.45,192.69 "/>
   <polygon class="fil1" points="394.57,129.52 415.18,164.4 429.41,149.48 408.8,114.98 "/>
   <polygon class="fil2" points="138.9,24.35 159.26,58.58 173.73,44.52 153.94,9 "/>
   <polygon class="fil1" points="345.7,182.16 366.72,216.5 380.6,201.29 360.41,166.78 "/>
   <polygon class="fil1" points="296.76,233.97 316.92,268.2 331.57,253.1 311.59,218.8 "/>
   <polygon class="fil1" points="370.25,155.86 390.27,190.39 404.96,174.99 384.79,140.73 "/>
   <polygon class="fil2" points="7.99,161.64 0,169.77 28.11,195.96 "/>
   <polygon class="fil2" points="185.21,34.32 193.2,26.18 165.09,0 "/>
   <polygon class="fil1" points="264.6,268.17 256.61,276.3 284.72,302.49 "/>
   <polygon class="fil1" points="438.26,142.7 446.25,134.57 418.13,108.39 "/>
   <polygon class="fil3" points="304.73,131.95 207.35,235.13 220.48,246.88 330.92,130.02 251.18,54.62 237.4,68.09 "/>
   <polygon class="fil2" points="65.66,101.66 85.91,136.22 100.3,121.59 79.45,86.67 "/>
   <polygon class="fil2" points="41.08,126.93 60.92,162.51 76,147.09 55.82,112.68 "/>
   <polygon class="fil2" points="89.91,76.16 109.46,109.22 110.62,110.53 124.9,95.28 115.02,78.15 104.24,61 "/>
   <polygon class="fil1" points="272.38,259.48 292.65,294.14 307.09,278.61 286.91,244.38 "/>
   <polygon class="fil2" points="114.48,49.85 135.34,84.41 142.5,76.94 149.48,69.81 129.14,34.86 "/>
   <polygon class="fil2" points="16.68,153.47 37.27,188.27 51.62,173.63 30.9,138.84 "/>
   <polygon class="fil1" points="321.24,207.67 336.1,233.33 341.83,242.09 356.2,227.77 335.45,192.69 "/>
   <polygon class="fil1" points="394.57,129.52 415.18,164.4 429.41,149.48 408.8,114.98 "/>
   <polygon class="fil2" points="138.9,24.35 159.26,58.58 173.73,44.52 153.94,9 "/>
   <polygon class="fil1" points="345.7,182.16 366.72,216.5 380.6,201.29 360.41,166.78 "/>
   <polygon class="fil1" points="296.76,233.97 316.92,268.2 331.57,253.1 311.59,218.8 "/>
   <polygon class="fil1" points="370.25,155.86 390.27,190.39 404.96,174.99 384.79,140.73 "/>
   <polygon class="fil2" points="7.99,161.64 0,169.77 28.11,195.96 "/>
   <polygon class="fil2" points="185.21,34.32 193.2,26.18 165.09,0 "/>
   <polygon class="fil1" points="264.6,268.17 256.61,276.3 284.72,302.49 "/>
   <polygon class="fil1" points="438.26,142.7 446.25,134.57 418.13,108.39 "/>
   <polygon class="fil4" points="304.73,131.95 207.35,235.13 220.48,246.88 330.92,130.02 251.18,54.62 237.4,68.09 "/>
  </g>
 </g>
</svg>
