<?xml version="1.0" encoding="UTF-8"?>
<!DOCTYPE svg PUBLIC "-//W3C//DTD SVG 1.1//EN" "http://www.w3.org/Graphics/SVG/1.1/DTD/svg11.dtd">
<!-- Creator: CorelDRAW 2019 (64-Bit) -->
<svg xmlns="http://www.w3.org/2000/svg" xml:space="preserve" width="2747px" height="2546px" version="1.1" style="shape-rendering:geometricPrecision; text-rendering:geometricPrecision; image-rendering:optimizeQuality; fill-rule:evenodd; clip-rule:evenodd"
viewBox="0 0 534.33 495.11"
 xmlns:xlink="http://www.w3.org/1999/xlink">
 <defs>
  <style type="text/css">
   <![CDATA[
    .fil1 {fill:#ED3237}
    .fil3 {fill:#CF4449}
    .fil4 {fill:#AA3436}
    .fil0 {fill:red}
    .fil2 {fill:#FF6464}
   ]]>
  </style>
 </defs>
 <g id="Layer_x0020_1">
  <metadata id="CorelCorpID_0Corel-Layer"/>
  <polygon class="fil0" points="327.79,493.18 352.68,492.75 352.68,442.15 363.79,458.57 375.76,476.13 376.22,475.67 387.43,459.1 398.92,441.95 399.05,492.78 424.34,492.77 424.34,402.08 397.06,402.08 376.26,436.6 365.46,419.66 354.79,402.08 327.79,402.08 "/>
  <polygon class="fil0" points="139.93,492.7 165.03,492.71 165.04,444.25 203.14,492.76 225.76,492.73 225.76,401.78 200.65,402.08 200.62,449.06 163.88,402.09 139.93,402.08 "/>
  <polygon class="fil0" points="315.53,471.32 266.72,471.23 266.64,457.17 309.98,456.95 309.82,437.12 266.6,436.8 266.95,423.54 314.62,423.51 314.62,402.09 241.53,401.77 241.53,492.58 315.23,492.78 "/>
  <path class="fil0" d="M483.45 432.72l9.59 24.22 -19.53 -0.07 9.94 -24.15zm-50.6 60l26.31 0.03 8.1 -15.97 33.33 0.03 7.15 15.9 26.59 0.09 -38.46 -91.38 -24.36 0.04 -38.66 91.26z"/>
  <path class="fil0" d="M84.34 478.71l2.46 -4.56c-2.3,-2.25 -15.63,-11.96 -18.75,-13.29 -3.01,2.62 -5.88,6.78 -10.87,8.87 -30.45,12.77 -43.33,-36.34 -16.11,-45.25 13.4,-4.38 20.07,3.61 26.17,9.13l18.93 -14.53c-7.93,-12.12 -21.81,-19.62 -43.22,-18.67 -18.21,2.91 -28.94,10.5 -36.14,22.21 -16.56,26.91 -2,67.49 33.82,71.69 28.34,4.5 38.61,-11.29 43.71,-15.6z"/>
  <polygon class="fil0" points="98.21,492.58 123.53,492.72 123.32,402.48 98.21,402.28 "/>
  <path class="fil1" d="M357.14 145.47l-115.33 -109.06 -181.15 191.67c20.5,19.53 65.36,66.82 87.45,82.25 22.32,15.58 46.07,8.14 60.35,-7.52l148.68 -157.34z"/>
  <path class="fil2" d="M282.68 75.07l74.23 70.4 -107.37 113.76 43.02 38.49c61,-63.42 120.95,-127.55 181.09,-191.79l-88.02 -82.49c-13.87,-9.44 -32.88,-11.09 -48.68,-1.41l-54.27 53.04z"/>
  <polygon class="fil0" points="93.56,112.08 115.88,150.18 131.75,134.05 108.77,95.55 "/>
  <polygon class="fil0" points="66.46,139.94 88.33,179.16 104.96,162.17 82.71,124.23 "/>
  <polygon class="fil0" points="120.29,83.96 141.85,120.42 143.13,121.86 158.87,105.05 147.98,86.16 136.1,67.25 "/>
  <polygon class="fil2" points="321.47,286.08 343.82,324.29 359.73,307.17 337.49,269.43 "/>
  <polygon class="fil0" points="147.38,54.96 170.38,93.06 178.28,84.83 185.97,76.96 163.54,38.44 "/>
  <polygon class="fil0" points="39.56,169.2 62.26,207.57 78.08,191.42 55.23,153.07 "/>
  <polygon class="fil2" points="375.34,228.96 391.72,257.25 398.04,266.9 413.88,251.12 391,212.44 "/>
  <polygon class="fil2" points="456.18,142.79 478.9,181.25 494.6,164.81 471.87,126.76 "/>
  <polygon class="fil0" points="174.31,26.84 196.75,64.58 212.71,49.08 190.89,9.92 "/>
  <polygon class="fil2" points="402.3,200.84 425.48,238.69 440.78,221.93 418.52,183.88 "/>
  <polygon class="fil2" points="348.35,257.96 370.57,295.69 386.73,279.05 364.7,241.23 "/>
  <polygon class="fil2" points="429.37,171.84 451.45,209.91 467.64,192.93 445.41,155.16 "/>
  <polygon class="fil0" points="29.98,178.21 21.17,187.18 52.16,216.05 "/>
  <polygon class="fil0" points="225.36,37.83 234.17,28.87 203.18,0 "/>
  <polygon class="fil2" points="312.89,295.66 304.08,304.63 335.07,333.49 "/>
  <polygon class="fil2" points="504.35,157.33 513.16,148.36 482.16,119.5 "/>
  <polygon class="fil3" points="357.14,145.47 249.77,259.23 264.25,272.19 386.01,143.35 298.1,60.22 282.91,75.07 "/>
  <polygon class="fil0" points="93.56,112.08 115.88,150.18 131.75,134.05 108.77,95.55 "/>
  <polygon class="fil0" points="66.46,139.94 88.33,179.16 104.96,162.17 82.71,124.23 "/>
  <polygon class="fil0" points="120.29,83.96 141.85,120.42 143.13,121.86 158.87,105.05 147.98,86.16 136.1,67.25 "/>
  <polygon class="fil2" points="321.47,286.08 343.82,324.29 359.73,307.17 337.49,269.43 "/>
  <polygon class="fil0" points="147.38,54.96 170.38,93.06 178.28,84.83 185.97,76.96 163.54,38.44 "/>
  <polygon class="fil0" points="39.56,169.2 62.26,207.57 78.08,191.42 55.23,153.07 "/>
  <polygon class="fil2" points="375.34,228.96 391.72,257.25 398.04,266.9 413.88,251.12 391,212.44 "/>
  <polygon class="fil2" points="456.18,142.79 478.9,181.25 494.6,164.81 471.87,126.76 "/>
  <polygon class="fil0" points="174.31,26.84 196.75,64.58 212.71,49.08 190.89,9.92 "/>
  <polygon class="fil2" points="402.3,200.84 425.48,238.69 440.78,221.93 418.52,183.88 "/>
  <polygon class="fil2" points="348.35,257.96 370.57,295.69 386.73,279.05 364.7,241.23 "/>
  <polygon class="fil2" points="429.37,171.84 451.45,209.91 467.64,192.93 445.41,155.16 "/>
  <polygon class="fil0" points="29.98,178.21 21.17,187.18 52.16,216.05 "/>
  <polygon class="fil0" points="225.36,37.83 234.17,28.87 203.18,0 "/>
  <polygon class="fil2" points="312.89,295.66 304.08,304.63 335.07,333.49 "/>
  <polygon class="fil2" points="504.35,157.33 513.16,148.36 482.16,119.5 "/>
  <polygon class="fil4" points="357.14,145.47 249.77,259.23 264.25,272.19 386.01,143.35 298.1,60.22 282.91,75.07 "/>
 </g>
</svg>
