<?xml version="1.0" encoding="UTF-8"?>
<!DOCTYPE svg PUBLIC "-//W3C//DTD SVG 1.1//EN" "http://www.w3.org/Graphics/SVG/1.1/DTD/svg11.dtd">
<!-- Creator: CorelDRAW 2019 (64-Bit) -->
<svg xmlns="http://www.w3.org/2000/svg" xml:space="preserve" width="8146px" height="1715px" version="1.1" style="shape-rendering:geometricPrecision; text-rendering:geometricPrecision; image-rendering:optimizeQuality; fill-rule:evenodd; clip-rule:evenodd"
viewBox="0 0 4051.81 852.94"
 xmlns:xlink="http://www.w3.org/1999/xlink">
 <defs>
  <style type="text/css">
   <![CDATA[
    .fil4 {fill:#CF4449}
    .fil5 {fill:#9C3234}
    .fil1 {fill:red}
    .fil0 {fill:red}
    .fil2 {fill:#FF6464}
    .fil3 {fill:#FF6464}
   ]]>
  </style>
 </defs>
 <g id="Layer_x0020_1">
  <metadata id="CorelCorpID_0Corel-Layer"/>
  <polygon class="fil0" points="3037.41,668.53 3159.65,666.42 3159.66,417.91 3214.23,498.56 3273.01,584.81 3275.27,582.56 3330.32,501.18 3386.77,416.92 3387.41,666.57 3511.62,666.53 3511.62,221.14 3377.63,221.14 3275.46,390.66 3222.43,307.45 3170.01,221.14 3037.41,221.1 "/>
  <polygon class="fil0" points="2114.76,666.2 2238.04,666.25 2238.11,428.25 2425.22,666.48 2536.32,666.35 2536.32,219.63 2413.02,221.14 2412.88,451.84 2232.43,221.15 2114.76,221.1 "/>
  <polygon class="fil0" points="2977.24,561.17 2737.51,560.75 2737.09,491.7 2949.96,490.59 2949.18,393.23 2736.88,391.62 2738.63,326.54 2972.72,326.35 2972.73,221.18 2613.77,219.62 2613.77,665.6 2975.72,666.56 "/>
  <path class="fil0" d="M3801.94 371.6l47.08 118.97 -95.91 -0.35 48.83 -118.62zm-248.55 294.69l129.24 0.15 39.77 -78.45 163.72 0.16 35.13 78.1 130.56 0.42 -188.9 -448.82 -119.62 0.21 -189.9 448.23z"/>
  <path class="fil0" d="M1841.74 597.45l12.1 -22.38c-11.27,-11.04 -76.75,-58.72 -92.07,-65.24 -14.8,12.86 -28.9,33.26 -53.42,43.54 -149.53,62.73 -212.81,-178.46 -79.09,-222.23 65.78,-21.54 98.56,17.74 128.53,44.83l92.95 -71.34c-38.91,-59.54 -107.1,-96.38 -212.24,-91.73 -89.47,14.3 -142.13,51.61 -177.53,109.11 -81.33,132.14 -9.82,331.44 166.13,352.1 139.16,22.11 189.59,-55.45 214.64,-76.66z"/>
  <polygon class="fil0" points="1909.87,665.58 2034.22,666.28 2033.22,223.11 1909.89,222.09 "/>
  <path class="fil1" d="M859.27 372.07l-294.97 -278.94 -463.29 490.2c52.44,49.96 167.15,170.9 223.66,210.36 57.07,39.85 117.81,20.82 154.35,-19.23l380.25 -402.39z"/>
  <path class="fil2" d="M668.83 192l189.86 180.07 -274.61 290.93 110.02 98.45c156.02,-162.2 309.34,-326.22 463.15,-490.52l-225.1 -210.98c-35.47,-24.15 -84.1,-28.37 -124.51,-3.62l-138.81 135.67z"/>
  <polygon class="fil0" points="185.15,286.66 242.24,384.1 282.81,342.85 224.04,244.39 "/>
  <polygon class="fil0" points="115.84,357.91 171.78,458.23 214.3,414.77 157.4,317.74 "/>
  <polygon class="fil0" points="253.52,214.74 308.66,307.98 311.93,311.66 352.18,268.68 324.33,220.35 293.94,171.99 "/>
  <polygon class="fil3" points="768.04,731.67 825.22,829.4 865.91,785.61 809.03,689.1 "/>
  <polygon class="fil0" points="322.8,140.57 381.62,238 401.83,216.96 421.49,196.84 364.14,98.3 "/>
  <polygon class="fil0" points="47.04,432.75 105.1,530.88 145.57,489.58 87.12,391.49 "/>
  <polygon class="fil3" points="905.83,585.58 947.72,657.95 963.87,682.63 1004.41,642.26 945.89,543.34 "/>
  <polygon class="fil3" points="1112.59,365.21 1170.7,463.57 1210.84,421.51 1152.71,324.2 "/>
  <polygon class="fil0" points="391.66,68.65 449.06,165.17 489.88,125.53 434.07,25.37 "/>
  <polygon class="fil3" points="974.79,513.66 1034.05,610.47 1073.2,567.6 1016.26,470.29 "/>
  <polygon class="fil3" points="836.8,659.75 893.64,756.26 934.96,713.69 878.61,616.97 "/>
  <polygon class="fil3" points="1044.01,439.49 1100.47,536.85 1141.9,493.43 1085.03,396.83 "/>
  <polygon class="fil0" points="22.54,455.79 0,478.72 79.27,552.56 "/>
  <polygon class="fil0" points="522.24,96.76 544.77,73.83 465.5,0 "/>
  <polygon class="fil3" points="746.11,756.18 723.57,779.11 802.84,852.94 "/>
  <polygon class="fil3" points="1235.77,402.38 1258.31,379.45 1179.04,305.62 "/>
  <polygon class="fil4" points="859.27,372.07 584.67,663 621.71,696.15 933.11,366.63 708.28,154.02 669.42,192 "/>
  <polygon class="fil0" points="185.15,286.66 242.24,384.1 282.81,342.85 224.04,244.39 "/>
  <polygon class="fil0" points="115.84,357.91 171.78,458.23 214.3,414.77 157.4,317.74 "/>
  <polygon class="fil0" points="253.52,214.74 308.66,307.98 311.93,311.66 352.18,268.68 324.33,220.35 293.94,171.99 "/>
  <polygon class="fil3" points="768.04,731.67 825.22,829.4 865.91,785.61 809.03,689.1 "/>
  <polygon class="fil0" points="322.8,140.57 381.62,238 401.83,216.96 421.49,196.84 364.14,98.3 "/>
  <polygon class="fil0" points="47.04,432.75 105.1,530.88 145.57,489.58 87.12,391.49 "/>
  <polygon class="fil3" points="905.83,585.58 947.72,657.95 963.87,682.63 1004.41,642.26 945.89,543.34 "/>
  <polygon class="fil3" points="1112.59,365.21 1170.7,463.57 1210.84,421.51 1152.71,324.2 "/>
  <polygon class="fil0" points="391.66,68.65 449.06,165.17 489.88,125.53 434.07,25.37 "/>
  <polygon class="fil3" points="974.79,513.66 1034.05,610.47 1073.2,567.6 1016.26,470.29 "/>
  <polygon class="fil3" points="836.8,659.75 893.64,756.26 934.96,713.69 878.61,616.97 "/>
  <polygon class="fil3" points="1044.01,439.49 1100.47,536.85 1141.9,493.43 1085.03,396.83 "/>
  <polygon class="fil0" points="22.54,455.79 0,478.72 79.27,552.56 "/>
  <polygon class="fil0" points="522.24,96.76 544.77,73.83 465.5,0 "/>
  <polygon class="fil3" points="746.11,756.18 723.57,779.11 802.84,852.94 "/>
  <polygon class="fil3" points="1235.77,402.38 1258.31,379.45 1179.04,305.62 "/>
  <polygon class="fil5" points="859.27,372.07 584.67,663 621.71,696.15 933.11,366.63 708.28,154.02 669.42,192 "/>
 </g>
</svg>
